<svg width="90" height="90" viewBox="0 0 90 90" fill="none" xmlns="http://www.w3.org/2000/svg">
<path d="M18.75 48.75H11.25M45 33.75V78.75V33.75ZM15 48.75C15 56.7065 18.1607 64.3371 23.7868 69.9632C29.4129 75.5893 37.0435 78.75 45 78.75C52.9565 78.75 60.5871 75.5893 66.2132 69.9632C71.8393 64.3371 75 56.7065 75 48.75H15ZM78.75 48.75H71.25H78.75Z" stroke="black" stroke-width="6" stroke-linecap="round" stroke-linejoin="round"/>
<path d="M45 33.75C51.2132 33.75 56.25 28.7132 56.25 22.5C56.25 16.2868 51.2132 11.25 45 11.25C38.7868 11.25 33.75 16.2868 33.75 22.5C33.75 28.7132 38.7868 33.75 45 33.75Z" stroke="black" stroke-width="6" stroke-linecap="round" stroke-linejoin="round"/>
</svg>
