<svg width="90" height="90" viewBox="0 0 90 90" fill="none" xmlns="http://www.w3.org/2000/svg">
<path d="M11.25 71.2502C16.3806 68.288 22.2006 66.7285 28.125 66.7285C34.0494 66.7285 39.8694 68.288 45 71.2502C50.1306 68.288 55.9506 66.7285 61.875 66.7285C67.7994 66.7285 73.6194 68.288 78.75 71.2502" stroke="black" stroke-width="6" stroke-linecap="round" stroke-linejoin="round"/>
<path d="M11.25 22.5002C16.3806 19.538 22.2006 17.9785 28.125 17.9785C34.0494 17.9785 39.8694 19.538 45 22.5002C50.1306 19.538 55.9506 17.9785 61.875 17.9785C67.7994 17.9785 73.6194 19.538 78.75 22.5002" stroke="black" stroke-width="6" stroke-linecap="round" stroke-linejoin="round"/>
<path d="M11.25 22.5V71.25" stroke="black" stroke-width="6" stroke-linecap="round" stroke-linejoin="round"/>
<path d="M45 22.5V71.25" stroke="black" stroke-width="6" stroke-linecap="round" stroke-linejoin="round"/>
<path d="M78.75 22.5V71.25" stroke="black" stroke-width="6" stroke-linecap="round" stroke-linejoin="round"/>
</svg>
