<svg width="90" height="90" viewBox="0 0 90 90" fill="none" xmlns="http://www.w3.org/2000/svg">
<path d="M45 78.75C63.6396 78.75 78.75 63.6396 78.75 45C78.75 26.3604 63.6396 11.25 45 11.25C26.3604 11.25 11.25 26.3604 11.25 45C11.25 63.6396 26.3604 78.75 45 78.75Z" stroke="black" stroke-width="6" stroke-linecap="round" stroke-linejoin="round"/>
<path d="M13.5 33.75H76.5" stroke="black" stroke-width="6" stroke-linecap="round" stroke-linejoin="round"/>
<path d="M13.5 56.25H76.5" stroke="black" stroke-width="6" stroke-linecap="round" stroke-linejoin="round"/>
<path d="M43.125 11.25C36.8075 21.3735 33.4583 33.067 33.4583 45C33.4583 56.933 36.8075 68.6265 43.125 78.75" stroke="black" stroke-width="6" stroke-linecap="round" stroke-linejoin="round"/>
<path d="M46.875 11.25C53.1925 21.3735 56.5417 33.067 56.5417 45C56.5417 56.933 53.1925 68.6265 46.875 78.75" stroke="black" stroke-width="6" stroke-linecap="round" stroke-linejoin="round"/>
</svg>
