<svg width="90" height="90" viewBox="0 0 90 90" fill="none" xmlns="http://www.w3.org/2000/svg">
<path d="M48.7499 11.25C49.7445 11.25 50.6983 11.6451 51.4016 12.3483C52.1048 13.0516 52.4999 14.0054 52.4999 15V32.0062L67.2299 23.505C68.0912 23.0077 69.1148 22.873 70.0754 23.1304C71.0361 23.3878 71.8551 24.0162 72.3524 24.8775L76.1024 31.3725C76.5997 32.2338 76.7344 33.2573 76.477 34.218C76.2196 35.1786 75.5912 35.9977 74.7299 36.495L60.0037 45L74.7299 53.5088C75.5912 54.006 76.2196 54.8251 76.477 55.7858C76.7344 56.7464 76.5997 57.77 76.1024 58.6313L72.3524 65.1263C71.8551 65.9875 71.0361 66.616 70.0754 66.8734C69.1148 67.1308 68.0912 66.996 67.2299 66.4987L52.4999 57.99V75C52.4999 75.9946 52.1048 76.9484 51.4016 77.6517C50.6983 78.3549 49.7445 78.75 48.7499 78.75H41.2499C40.2554 78.75 39.3015 78.3549 38.5983 77.6517C37.895 76.9484 37.4999 75.9946 37.4999 75V57.99L22.7699 66.495C21.9086 66.9923 20.8851 67.127 19.9244 66.8696C18.9638 66.6122 18.1447 65.9838 17.6474 65.1225L13.8974 58.6275C13.4002 57.7662 13.2654 56.7427 13.5228 55.782C13.7802 54.8214 14.4086 54.0023 15.2699 53.505L29.9962 45L15.2699 36.495C14.4086 35.9977 13.7802 35.1786 13.5228 34.218C13.2654 33.2573 13.4002 32.2338 13.8974 31.3725L17.6474 24.8775C18.1447 24.0162 18.9638 23.3878 19.9244 23.1304C20.8851 22.873 21.9086 23.0077 22.7699 23.505L37.4999 32.0062V15C37.4999 14.0054 37.895 13.0516 38.5983 12.3483C39.3015 11.6451 40.2554 11.25 41.2499 11.25H48.7499Z" stroke="black" stroke-width="6" stroke-linecap="round" stroke-linejoin="round"/>
</svg>
