<svg width="100" height="100" viewBox="0 0 100 100" fill="none" xmlns="http://www.w3.org/2000/svg">
<path d="M66.667 16.6666H33.3337C24.1289 16.6666 16.667 24.1285 16.667 33.3333V66.6666C16.667 75.8714 24.1289 83.3333 33.3337 83.3333H66.667C75.8717 83.3333 83.3336 75.8714 83.3336 66.6666V33.3333C83.3336 24.1285 75.8717 16.6666 66.667 16.6666Z" stroke="black" stroke-width="4" stroke-linecap="round" stroke-linejoin="round"/>
<path d="M50 62.5C56.9036 62.5 62.5 56.9036 62.5 50C62.5 43.0964 56.9036 37.5 50 37.5C43.0964 37.5 37.5 43.0964 37.5 50C37.5 56.9036 43.0964 62.5 50 62.5Z" stroke="black" stroke-width="4" stroke-linecap="round" stroke-linejoin="round"/>
<path d="M68.75 31.25V31.2542" stroke="black" stroke-width="4" stroke-linecap="round" stroke-linejoin="round"/>
</svg>
