<svg width="90" height="90" viewBox="0 0 90 90" fill="none" xmlns="http://www.w3.org/2000/svg">
<path d="M60 18.75L71.25 30L63.75 33.75L78.75 48.75L67.5 52.5L82.5 67.5H48.75" stroke="black" stroke-width="6" stroke-linecap="round" stroke-linejoin="round"/>
<path d="M56.25 78.75V67.5" stroke="black" stroke-width="6" stroke-linecap="round" stroke-linejoin="round"/>
<path d="M30 48.75L22.5 41.25" stroke="black" stroke-width="6" stroke-linecap="round" stroke-linejoin="round"/>
<path d="M30 45L37.5 37.5" stroke="black" stroke-width="6" stroke-linecap="round" stroke-linejoin="round"/>
<path d="M30 78.75V30" stroke="black" stroke-width="6" stroke-linecap="round" stroke-linejoin="round"/>
<path d="M21.84 59.9811C20.1993 59.8851 18.5996 59.4307 17.1533 58.6499C15.7071 57.8691 14.4495 56.781 13.4689 55.4619C12.4884 54.1429 11.8088 52.6251 11.478 51.0152C11.1471 49.4053 11.173 47.7424 11.5538 46.1436C10.1929 45.0124 9.1182 43.5758 8.41726 41.9509C7.71631 40.3259 7.40888 38.5584 7.51998 36.7922C7.63108 35.0259 8.15756 33.3109 9.0566 31.7866C9.95564 30.2622 11.2018 28.9717 12.6938 28.0199C11.3864 25.6973 10.9461 22.9861 11.4513 20.3692C11.9564 17.7522 13.3743 15.3997 15.4522 13.7306C17.5301 12.0616 20.133 11.1844 22.7973 11.2555C25.4616 11.3265 28.0141 12.3412 30 14.1186C31.9865 12.344 34.5381 11.3317 37.2009 11.2621C39.8637 11.1924 42.4648 12.0698 44.5413 13.7381C46.6178 15.4064 48.035 17.7574 48.5407 20.3727C49.0463 22.9879 48.6076 25.6978 47.3026 28.0199C48.7954 28.9708 50.0426 30.2609 50.9425 31.7851C51.8423 33.3093 52.3695 35.0245 52.481 36.791C52.5924 38.5575 52.2851 40.3254 51.584 41.9506C50.8829 43.5759 49.8078 45.0125 48.4463 46.1436C48.8399 47.7966 48.854 49.5173 48.4875 51.1765C48.121 52.8357 47.3834 54.3903 46.3301 55.7237C45.2768 57.057 43.9351 58.1344 42.4058 58.875C40.8765 59.6157 39.1993 60.0002 37.5001 59.9999H22.5L21.84 59.9811Z" stroke="black" stroke-width="6" stroke-linecap="round" stroke-linejoin="round"/>
</svg>
