<svg width="100" height="100" viewBox="0 0 100 100" fill="none" xmlns="http://www.w3.org/2000/svg">
<path d="M91.6663 16.7084C87.4997 18.7501 83.4163 19.5792 79.1663 20.8334C74.4955 15.5626 67.5705 15.2709 60.9163 17.7626C54.2622 20.2542 49.9038 26.3459 49.9997 33.3334V37.5001C36.4788 37.8459 24.4372 31.6876 16.6663 20.8334C16.6663 20.8334 -0.75866 51.8042 33.333 66.6667C25.533 71.8626 17.7538 75.3667 8.33301 75.0001C22.1163 82.5126 37.1372 85.0959 50.1413 81.3209C65.058 76.9876 77.3163 65.8084 82.0205 49.0626C83.4238 43.9695 84.1206 38.7078 84.0913 33.4251C84.083 32.3876 90.383 21.8751 91.6663 16.7042V16.7084Z" stroke="black" stroke-width="4" stroke-linecap="round" stroke-linejoin="round"/>
</svg>
